<svg t="1693188448844" class="icon" viewBox="0 0 2654 1024" version="1.1" xmlns="http://www.w3.org/2000/svg" p-id="15994" width="200" height="200"><path d="M127.469037 641.706667h295.670519V210.166519h-2.787556L127.469037 641.706667z m571.818667 126.103703H573.76237v232.580741H423.139556V767.81037H4.740741V609.46963L423.139556 19.626667h150.622814V641.706667h125.525334v126.103703z m1539.062518-341.873777a366.648889 366.648889 0 0 0 78.098963-5.603556c26.036148-4.67437 49.284741-12.847407 69.736296-24.519111 20.461037-11.671704 36.958815-27.780741 49.512297-48.336593 12.553481-20.555852 18.830222-45.767111 18.830222-75.662222 0-42.031407-14.184296-75.662222-42.543407-100.882963-28.34963-25.220741-64.853333-37.831111-109.482667-37.831111-27.885037 0-52.062815 5.613037-72.51437 16.820148a149.143704 149.143704 0 0 0-50.915556 45.530074c-13.473185 19.152593-23.466667 40.63763-29.980444 64.455111a243.418074 243.418074 0 0 0-8.362667 73.557334h-159.004445c1.867852-47.634963 10.695111-91.780741 26.510223-132.408889 15.80563-40.628148 37.423407-75.889778 64.853333-105.775408 27.420444-29.895111 60.662519-53.248 99.716741-70.068148C2211.84 8.419556 2256.014222 0 2305.298963 0c38.115556 0 75.538963 5.603556 112.260741 16.810667 36.731259 11.207111 69.736296 27.553185 99.024592 49.038222 29.297778 21.485037 52.773926 48.810667 70.437926 81.967407 17.664 33.156741 26.500741 71.224889 26.500741 114.194963 0 49.502815-11.159704 92.700444-33.46963 129.602371-22.319407 36.892444-57.192296 63.744-104.609185 80.564148v2.797037c55.789037 11.207111 99.252148 38.997333 130.398815 83.370666 31.156148 44.373333 46.724741 98.304 46.724741 161.820445 0 46.705778-9.291852 88.50963-27.894519 125.402074-18.593185 36.901926-43.700148 68.190815-75.311407 93.876148-31.611259 25.694815-68.333037 45.539556-110.174815 59.543704-41.841778 14.01363-86.006519 21.020444-132.494222 21.020444-56.718222 0-106.230519-8.173037-148.536889-24.519111-42.30637-16.346074-77.63437-39.461926-105.993482-69.357037-28.34963-29.88563-49.967407-65.848889-64.853333-107.880296-14.876444-42.040889-22.774519-88.746667-23.703704-140.117333h158.985482c-1.85837 59.780741 12.790519 109.520593 43.937185 149.219555 31.146667 39.698963 77.871407 59.543704 140.164741 59.543704 53.001481 0 97.393778-15.17037 133.18637-45.530074 35.802074-30.359704 53.69363-73.557333 53.69363-129.611852 0-38.286222-7.433481-68.645926-22.309926-91.060148a144.535704 144.535704 0 0 0-58.576593-51.143111c-24.177778-11.681185-51.370667-18.915556-81.588148-21.712593a760.50963 760.50963 0 0 0-92.747852-2.806519v-119.087407z" fill="#CCCCCC" p-id="15995"></path><path d="M843.102815 512.730074a498.75437 497.189926 90 1 0 994.379852 0 498.75437 497.189926 90 1 0-994.379852 0Z" fill="#E5E5E5" p-id="15996"></path><path d="M918.433185 516.503704a426.960593 425.623704 90 1 0 851.247408 0 426.960593 425.623704 90 1 0-851.247408 0Z" fill="#F2F2F2" p-id="15997"></path><path d="M1097.642667 252.017778c-18.640593 10.448593-41.500444 36.238222-62.710519 85.873778-67.792593 158.691556-50.839704 300.382815-50.839704 300.382814s22.59437-272.042667 112.990815-323.053037M1589.94963 785.635556c18.640593-10.458074 41.509926-36.247704 62.710518-85.873778 67.792593-158.701037 50.849185-300.392296 50.849185-300.392297s-22.603852 272.052148-113.000296 323.062519" fill="#CCCCCC" p-id="15998"></path></svg>