<svg t="1693221639133" class="icon" viewBox="0 0 1024 1024" version="1.1" xmlns="http://www.w3.org/2000/svg" p-id="23163" width="200" height="200"><path d="M483.852133 1011.988626H15.287204a13.855545 13.855545 0 0 1-13.855545-13.855545V79.250806A13.855545 13.855545 0 0 1 15.287204 65.516588h468.564929a13.855545 13.855545 0 0 1 13.855545 13.855545v918.760948a13.855545 13.855545 0 0 1-13.855545 13.855545zM15.287204 66.001896A13.273175 13.273175 0 0 0 2.038294 79.250806v918.882275a13.273175 13.273175 0 0 0 13.24891 13.24891h468.564929a13.273175 13.273175 0 0 0 13.24891-13.24891V79.250806A13.273175 13.273175 0 0 0 483.852133 66.001896H15.287204zM1008.712796 1011.988626H540.147867a13.855545 13.855545 0 0 1-13.855545-13.855545V79.250806A13.855545 13.855545 0 0 1 540.147867 65.516588h468.564929a13.855545 13.855545 0 0 1 13.855545 13.855545v918.760948a13.855545 13.855545 0 0 1-13.855545 13.855545zM540.147867 66.001896a13.273175 13.273175 0 0 0-13.24891 13.24891v918.882275a13.273175 13.273175 0 0 0 13.24891 13.24891h468.564929a13.273175 13.273175 0 0 0 13.24891-13.24891V79.250806A13.273175 13.273175 0 0 0 1008.712796 66.001896H540.147867z" fill="#EBEBEB" p-id="23164"></path><path d="M809.493839 945.307299l3.930995 7.934786 8.759811 1.286067-6.357536 6.187677 1.504455 8.735545-7.837725-4.125118-7.837725 4.125118 1.480189-8.735545-6.33327-6.187677 8.759811-1.286067zM193.468057 291.184834l2.052853 4.142104 4.571602 0.672152-3.319507 3.227299 0.786199 4.561895-4.091147-2.154767-4.091147 2.154767 0.77164-4.561895L186.843602 296.001517l4.571602-0.672152zM272.330616 145.592417l3.930995 7.934787 8.759811 1.286066-6.357536 6.187678 1.504455 8.735545-7.837725-4.125119-7.837725 4.125119 1.48019-8.735545L259.63981 154.81327l8.759811-1.286066zM52.850047 907.526066l1.455925 2.936114 3.251564 0.485308a0.994882 0.994882 0 0 1 0.558104 1.698578l-2.42654 2.280948 0.558104 3.251564a0.994882 0.994882 0 0 1-1.431659 1.043413l-2.911848-1.528721-2.911849 1.528721a0.994882 0.994882 0 0 1-1.431658-1.043413l0.558104-3.251564-2.42654-2.280948a0.994882 0.994882 0 0 1 0.533838-1.698578l3.251564-0.485308L50.957346 907.526066a0.994882 0.994882 0 0 1 1.892701 0z" fill="#F5F5F5" p-id="23165"></path><path d="M114.362844 753.003981a3.227299 3.227299 0 1 1-6.454598 0.048531 3.227299 3.227299 0 0 1 6.454598-0.048531zM574.289289 349.154882a3.227299 3.227299 0 1 1-3.227298-3.203034 3.203033 3.203033 0 0 1 3.227298 3.203034z" fill="#EBEBEB" p-id="23166"></path><path d="M406.955071 170.828436a3.227299 3.227299 0 1 1-3.227298-3.227299 3.251564 3.251564 0 0 1 3.227298 3.227299z" fill="#F5F5F5" p-id="23167"></path><path d="M407.969365 940.017441m-17.358146 4.096894a17.835071 17.835071 0 1 0 34.716291-8.193789 17.835071 17.835071 0 1 0-34.716291 8.193789Z" fill="#F0F0F0" p-id="23168"></path><path d="M401.835071 929.583318a17.204171 17.204171 0 0 0-10.167204 3.300094 17.810806 17.810806 0 0 0 25.478673 22.396967 17.398294 17.398294 0 0 0-15.311469-25.672796v-0.024265z" fill="#E6E6E6" p-id="23169"></path><path d="M328.907829 689.137441v-55.189232h37.06055v-63.648152h-37.06055v-181.480948h-71.505289l-149.455469 177.651867v67.477233h149.455469V689.137441h71.505289z m-71.505289-118.839811H178.447773l78.95962-92.85399v92.85399zM512 694.172512c44.313479 0 75.533346-12.42146 93.662028-37.261953 18.126256-24.842919 27.19181-64.053384 27.191811-117.631393 0-23.901422-2.754123-46.863773-8.259943-68.884626-2.81964-11.550332-6.544379-21.654445-11.179071-30.314767-4.632265-8.662749-10.975242-16.920265-19.033782-24.774977-8.056114-7.854711-18.463545-14.234085-31.219868-19.135696-12.756322-4.901611-29.069953-7.352417-48.943317-7.352418-41.360379 0-72.145896 11.213043-92.354123 33.639128-20.208227 22.423659-30.314768 61.702066-30.314768 117.832797 0 22.826464 1.982483 43.672872 5.945024 62.539222 3.960114 18.866351 9.497479 33.738616 16.614521 44.61437 9.803223 15.309043 22.358142 26.924891 37.667185 34.845119 15.306616 7.925081 35.381384 11.885194 60.224303 11.885194zM511.798597 638.180095c-12.622863 0-22.256227-6.881668-28.904948-20.645005-6.646294-13.763336-9.970654-39.445839-9.970654-77.042654 0-37.198863 3.023469-62.677536 9.065555-76.440872 6.042085-13.763336 15.845308-20.647431 29.407241-20.647431 13.292588 0 23.263242 6.748209 29.911963 20.244625 6.646294 13.493991 9.970654 39.846218 9.970654 79.056683 0 26.723488-1.443791 46.39545-4.331375 59.018313-2.887583 12.620436-7.386389 21.853422-13.496417 27.694104-6.110028 5.840682-13.326559 8.762237-21.652019 8.762237z m275.747185 55.994843c27.123867 0 49.380095-4.632265 66.771109-13.896796 17.388588-9.266957 30.817062-22.695431 40.282995-40.285422 9.46836-17.592417 14.200114-35.920076 14.200114-54.987829 0-27.123867-9.196588-49.617896-27.594616-67.477232-18.395602-17.859336-42.364967-26.789005-71.905668-26.789005-8.728265 0-17.558445 1.074957-26.488114 3.222446-8.929668 2.149915-17.961251 5.37236-27.092322 9.669763l7.051526-44.313479h131.930995v-65.460777h-194.775962l-25.983394 158.72 69.894067 10.070142c6.580777-7.386389 12.622863-12.486976 18.126256-15.309043 7.386389-3.892171 15.042123-5.840682 22.964777-5.840682 12.486976 0 22.491602 4.096 30.01145 12.288 7.519848 8.189573 11.278559 21.081782 11.27856 38.671772 0 17.189611-3.724739 30.113365-11.179072 38.776114-7.451905 8.660322-16.886294 12.98927-28.298312 12.98927-10.206028 0-18.99981-3.45782-26.386199-10.37346-7.386389-6.91564-12.084171-17.019754-14.098199-30.312341l-82.987678 9.063128c4.028057 13.83128 9.063128 25.379185 15.105213 34.643716 6.042085 9.266957 13.933194 17.558445 23.668474 24.876891 9.73528 7.318445 21.552531 12.824265 35.451754 16.515033 13.896796 3.693194 30.581687 5.539791 50.052246 5.539791z" fill="#4E8DFF" p-id="23170"></path><path d="M480.454976 730.145972l14.018124-4.105707-5.823697-33.561478-14.001138 4.125118zM361.627299 752.319697h14.617478l5.636853-33.840531h-14.615052z" fill="#FF8B7B" p-id="23171"></path><path d="M377.642464 750.621118h-17.767128a1.286066 1.286066 0 0 0-1.252094 0.990029l-2.873024 13.066919a2.128076 2.128076 0 0 0 2.128076 2.593972c5.729062-0.092209 9.909991-0.429498 17.133801-0.429498 4.440569 0 17.825365 0.465896 23.966938 0.465896 6.139147 0 6.925346-6.066351 4.423583-6.607469-11.198483-2.462938-19.747185-5.860095-23.350597-9.109232a3.567014 3.567014 0 0 0-2.407128-0.970617zM493.893156 724.433896l-15.304189 4.498805a1.286066 1.286066 0 0 0-0.914806 1.305479l0.89782 13.273175a2.128076 2.128076 0 0 0 2.761403 1.86601c5.486408-1.717991 13.362957-4.387185 20.307716-6.420626 8.119204-2.390142 11.421725-3.229725 20.941042-6.029952 5.7509-1.679166 5.600455-7.968758 3.062294-7.801327-11.666806 0.839583-16.798938 2.42654-27.997422-0.635754a6.905934 6.905934 0 0 0-3.753858-0.05581z" fill="#263238" p-id="23172"></path><path d="M488.649403 692.478787l3.004057 17.301232-14.018124 4.125118-3.004056-17.301232zM367.266578 718.479166h14.615052l-2.911848 17.454104h-14.615052z" fill="#000000" opacity=".2" p-id="23173"></path><path d="M495.965422 705.002161l-23.74127 6.964171s-19.300701-81.08527-28.560379-125.658389c-2.817213-13.569213-8.565687-32.253573-15.398825-52.170616-8.660322-25.085573-18.927014-52.114806-27.32527-73.245118-8.77437-22.248948-15.326028-37.965649-15.326029-37.96565l50.527849-9.220853s44.277081 116.978654 50.714692 161.105289c6.738502 45.878597 9.109232 130.191166 9.109232 130.191166z" fill="#263238" p-id="23174"></path><path d="M428.264948 534.137327c-8.660322-25.085573-18.927014-52.114806-27.32527-73.245118l4.030483-11.962844c14.355412 13.605611 22.9211 59.692891 23.294787 85.207962z" fill="#000000" opacity=".2" p-id="23175"></path><path d="M408.927848 418.68982s8.344872 124.930427 6.905934 167.712758c-1.586957 46.849213-30.0891 146.150521-30.0891 146.150522h-26.747753s11.742028-89.165649 15.10036-134.745782c3.734445-51.927962-14.763071-170.064076-14.763071-170.064076l49.59363-9.050996z" fill="#263238" p-id="23176"></path><path d="M388.954995 733.130616h-31.506199v-9.40527l35.221232-0.616341zM499.102938 704.667299l-28.2789 8.323033-2.688607-9.143204 31.472228-9.781384zM382.478559 753.178692c0.994882 0.077649 1.989763-0.186844 2.81964-0.744948a2.091678 2.091678 0 0 0 0.70855-1.868436 1.101649 1.101649 0 0 0-0.596929-0.987602c-1.60637-0.822597-6.328417 2.072265-6.850123 2.407128a0.373687 0.373687 0 0 0-0.169858 0.354275 0.3931 0.3931 0 0 0 0.262066 0.281479 17.543886 17.543886 0 0 0 3.826654 0.558104z m2.164474-3.023469a1.026427 1.026427 0 0 1 0.44891 0c0.145592 0.084929 0.232948 0.242654 0.223242 0.412512a1.363716 1.363716 0 0 1-0.465896 1.249668 7.092777 7.092777 0 0 1-5.187943 0.279052 13.625024 13.625024 0 0 1 4.981687-1.941232z" fill="#407BFF" p-id="23177"></path><path d="M378.74654 752.656986h0.148019c1.511735-0.822597 4.440569-4.03291 4.144531-5.600455a1.121062 1.121062 0 0 0-1.101649-0.895394 1.868436 1.868436 0 0 0-1.475337 0.429498c-1.698578 1.400114-2.052853 5.600455-2.072265 5.787299 0 0.12618 0.06309 0.245081 0.169858 0.31545a0.31545 0.31545 0 0 0 0.186843-0.036398z m2.948247-5.918332h0.150445c0.446483 0 0.485308 0.262066 0.502294 0.356701 0.186844 0.970616-1.679166 3.377744-3.171488 4.515792 0.101915-1.66218 0.70127-3.251564 1.715564-4.571602a1.193858 1.193858 0 0 1 0.803185-0.300891zM495.853801 725.965043c2.390142-0.206256 6.571071-0.839583 7.709118-2.649782a1.997043 1.997043 0 0 0 0.150446-1.868436 1.101649 1.101649 0 0 0-0.803185-0.70855c-1.997043-0.465896-6.7749 4.069308-7.318445 4.574028a0.354275 0.354275 0 0 0 0.225668 0.596929l0.036398 0.055811z m6.794313-4.518218h0.150445c0.150445 0.029118 0.269346 0.145592 0.298465 0.298464 0.194123 0.368834 0.194123 0.810464 0 1.176872-0.635754 1.026427-2.911848 1.868436-6.160986 2.220284 1.849024-1.698578 4.554616-3.751431 5.712076-3.69562z" fill="#407BFF" p-id="23178"></path><path d="M495.853801 725.965043a0.412512 0.412512 0 0 0 0.242654 0c1.455924-1.269081 3.921289-5.282578 3.193327-6.794313-0.169858-0.354275-0.560531-0.727962-1.494749-0.558104a2.499336 2.499336 0 0 0-1.679166 1.116208c-1.363716 1.980057-0.616341 5.862521-0.596929 6.029953 0.026692 0.12618 0.121327 0.225668 0.242654 0.262066l0.092209-0.05581z m2.42654-6.774901c0.298464 0 0.373687 0.148019 0.3931 0.20383 0.429498 0.914806-1.140474 3.957687-2.557574 5.508246a8.043981 8.043981 0 0 1 0.577517-4.872493 1.868436 1.868436 0 0 1 1.21327-0.822597l0.373687-0.016986z" fill="#407BFF" p-id="23179"></path><path d="M466.720758 281.903318l-12.945592 9.577554 3.848493 7.100057 19.096872-1.567545zM416.025479 296.853232a258.171754 258.171754 0 0 0 9.02673 9.963375c3.098692 3.249137 6.245915 6.619602 9.444094 9.803222 6.21437 6.357536 12.836398 12.302559 19.827261 17.796247l2.397422 1.902407c0.514427 0.388246 1.053118 0.740095 1.611223 1.060399 0.427071 0.240227 0.706123 0.363981 0.664872 0.429497-0.308171 0.089782-0.606635 0.211109-0.890541 0.356702-0.422218 0.242654-0.63818 0.526559-0.538692 0.538692 0.097062 0.014559 0.402806-0.235374 0.723109-0.718256a16.277232 16.277232 0 0 0 1.958218-4.336228c1.189005-4.057175 2.006749-8.216265 2.443526-12.42146 0.254787-2.217858 0.543545-4.464834 0.706124-6.736075l0.436777-6.745782 10.900019-1.176872c0.635754 2.55272 1.053118 4.911318 1.407393 7.34271 0.356701 2.431393 0.730389 4.935583 0.900247 7.471318a70.127014 70.127014 0 0 1-0.26692 15.743393c-0.417365 3.105972-1.261801 6.139147-2.504189 9.012171a19.504531 19.504531 0 0 1-3.258844 5.141839 16.612095 16.612095 0 0 1-6.299299 4.513365 17.15564 17.15564 0 0 1-7.874123 1.135621 21.523412 21.523412 0 0 1-6.139147-1.470484 33.131981 33.131981 0 0 1-4.641971-2.266388c-0.76436-0.444057-1.164739-0.727962-1.751962-1.082237l-1.625782-1.03856c-2.261536-1.358863-4.2149-2.795374-6.296872-4.200341-2.081972-1.404967-4.052322-2.989498-5.969289-4.571602-3.957687-3.072-7.646028-6.364815-11.283413-9.691602a202.16963 202.16963 0 0 1-10.472948-10.373459c-1.679166-1.793213-3.338919-3.59128-4.974407-5.435451a174.863773 174.863773 0 0 1-4.870067-5.729061l17.211451-14.219526z" fill="#FF8B7B" p-id="23180"></path><path d="M474.983128 308.566142l1.754389-11.479962-19.096872 1.567545s0.883261 9.859033 9.300928 13.302294l8.041555-3.389877z" fill="#FF8B7B" p-id="23181"></path><path d="M397.411488 302.589573c-2.499336 13.739071 28.948626 47.130692 28.948626 47.130692l25.891185-20.868246a177.586351 177.586351 0 0 0-22.753669-30.574408c-12.93346-13.326559-29.341725-10.768986-32.086142 4.311962z" fill="#4E8DFF" p-id="23182"></path><path d="M428.471204 323.998938a136.687014 136.687014 0 0 1 8.230824 17.398294l-10.339488 8.323033s-18.667374-19.824834-26.133839-35.221232c7.784341-7.299033 20.552796-3.938275 28.242503 9.499905z" fill="#000000" opacity=".2" p-id="23183"></path><path d="M332.006521 303.596588a328.104645 328.104645 0 0 1 14.559242 46.664796 479.571716 479.571716 0 0 1 6.236209 31.433403c3.732019 22.678445 5.187943 40.149536 6.512834 45.95382 11.198483-2.033441 53.718749-9.778957 76.884929-14.015697 1.341877-83.773877-23.537441-124.090844-23.537441-124.090844a154.158104 154.158104 0 0 0-18.798408-0.223241c-1.324891 0-2.669194 0.167431-4.011071 0.298464-11.001934 1.349156-21.914085 3.336493-32.685497 5.95473-2.052853 0.465896-4.125118 1.007014-6.122162 1.567545a269.477005 269.477005 0 0 0-19.038635 6.457024z" fill="#4E8DFF" p-id="23184"></path><path d="M348.058085 417.122275a1.868436 1.868436 0 0 1-0.76436-3.584c0.70855-0.298464 69.641706-31.860474 57.86328-126.645991a1.880569 1.880569 0 1 1 3.734445-0.468322c12.1691 97.622142-59.302218 130.213005-60.03018 130.530882a1.870863 1.870863 0 0 1-0.800758 0.169857z" fill="#263238" p-id="23185"></path><path d="M388.54491 463.86472a3.304948 3.304948 0 0 1-1.659754-4.384758l183.461005-409.650957a3.341346 3.341346 0 0 1 4.384758-1.679166 3.32436 3.32436 0 0 1 1.674313 4.384758L392.929668 462.207393a3.304948 3.304948 0 0 1-4.384758 1.657327z" fill="#407BFF" p-id="23186"></path><path d="M388.54491 463.86472a3.304948 3.304948 0 0 1-1.659754-4.384758l183.461005-409.650957a3.341346 3.341346 0 0 1 4.384758-1.679166 3.32436 3.32436 0 0 1 1.674313 4.384758L392.929668 462.207393a3.304948 3.304948 0 0 1-4.384758 1.657327z" fill="#FFFFFF" opacity=".7" p-id="23187"></path><path d="M751.722768 146.643109c-3.338919-1.870863-6.816152-3.892171-10.385593-5.915905l0.953631-1.60637c3.506351 2.091678 6.964171 4.112986 10.276398 5.932891l-0.844436 1.589384zM732.227943 135.007848c-10.361327-6.483716-20.632872-13.343545-30.545289-19.955867l1.038559-1.562692c9.909991 6.612322 20.159697 13.455166 30.482199 19.929175l-0.975469 1.589384z" fill="#407BFF" p-id="23188"></path><path d="M768.157725 337.878749c-103.322085-9.922123-167.278408-107.682578-268.040493-123.413839a7.934787 7.934787 0 0 1-6.005687-11.069877l63.383659-141.515829a8.007583 8.007583 0 0 1 8.320606-4.624986c103.326938 13.418768 167.630256 113.960038 272.51746 123.993782l-70.175545 156.633175z" fill="#4E8DFF" p-id="23189"></path><path d="M660.242199 253.129403l5.750901 3.736872 4.190635-4.688076c-0.291185 2.331905-0.562957 4.683223-0.77892 7.002995 1.933953 1.242389 3.846066 2.450806 5.797005 3.673782l-6.318711 0.679432c-0.291185 2.331905-0.565384 4.661384-0.778919 7.002995l-3.033176-6.624455-6.292019 0.616341 4.41145-4.724474a196.80455 196.80455 0 0 1-2.948246-6.675412z m27.046218-8.934521c1.931526 1.208417 3.875185 2.392569 5.835829 3.554881l4.36292-4.78999-0.786199 6.96417 5.908625 3.411716-6.401213 0.880834-0.791052 6.930199-3.115678-6.425479-6.376948 0.783773 4.457555-4.787564c-1.043412-2.159621-2.067412-4.341081-3.093839-6.52254z m-53.687204-0.584797l5.707223 3.819375 4.321668-4.690503-0.866275 7.053953 5.707223 3.821801-6.243488 0.553251-0.866275 7.053953c-1.01672-2.239697-2.014028-4.48182-2.957953-6.731223l-6.241061 0.553251 4.394464-4.702635-2.955526-6.731223z m72.512304-20.649858c1.955791 1.1429 3.916436 2.305213 5.872227 3.433555l4.467261-4.845801c-0.25964 2.290654-0.536265 4.60072-0.795905 6.910787 1.970351 1.104076 3.960114 2.208152 5.945023 3.273403l-6.435185 1.019147c-0.281479 2.293081-0.538692 4.60072-0.800758 6.891374-1.067678-2.098957-2.11837-4.197915-3.171488-6.318711l-6.418199 0.883261 4.469687-4.828815c-1.057972-2.135355-2.096531-4.277991-3.132663-6.420626z m-58.188436-40.787715a2.334332 2.334332 0 0 1 2.006748 0.359128c10.725308 6.976303 21.212815 14.141877 31.862901 21.127886 1.300626 0.914806 1.800493 2.603678 1.21327 4.079014l-10.586995 23.712152a2.334332 2.334332 0 0 1-3.525763 1.011867c-10.725308-6.976303-21.217668-14.158863-31.862901-21.127886a3.433555 3.433555 0 0 1-1.222976-4.132398l10.594275-23.675754a2.334332 2.334332 0 0 1 1.523867-1.354009z m-35.488152 39.729744l5.794578 3.656796 4.41145-4.724474-0.929365 7.024834 5.753327 3.756285c-2.086825 0.179564-4.190635 0.380967-6.272606 0.596929l-0.871128 7.036966a229.606521 229.606521 0 0 0-2.943394-6.658426l-6.306578 0.63818 4.428436-4.743886c-1.028853-2.200872-2.038294-4.401744-3.06472-6.583204z m98.876663-29.814901l5.83583 3.554882 4.455128-4.806976-0.849289 7.032113 5.906199 3.411716-6.401214 0.880834-0.791052 6.927773c-1.036133-2.120796-2.091678-4.261005-3.115677-6.423052l-6.374522 0.800758 4.428436-4.857934c-1.024-2.162047-2.067412-4.341081-3.093839-6.520114z m-51.085952 6.100323l-0.3931 0.087355c-1.164739 0.325156-2.113517 1.174445-2.567279 2.295507a5.767886 5.767886 0 0 0 0.463469 5.314124l-4.840948 8.325459c1.812626 1.189005 3.610692 2.394995 5.406332 3.603413l3.081706-9.427109a3.882464 3.882464 0 0 0 3.89945-2.470218 5.860095 5.860095 0 0 0-2.055279-7.005422 3.901877 3.901877 0 0 0-3.387451-0.635754z m15.437649-29.76637a22.100929 22.100929 0 0 1 8.89327 27.148133l-1.203564 2.664341a2.052853 2.052853 0 0 1-2.936113 0.883261l-0.218389-0.155299a3.062294 3.062294 0 0 1-1.082237-3.608265l1.007014-2.239697a16.388853 16.388853 0 0 0-4.066881-18.516929c-6.260474-5.396626-14.510711-3.562161-17.682199 3.499071l-1.184152 2.661915a2.052853 2.052853 0 0 1-2.904569 1.021573l-0.228095-0.145592a3.042882 3.042882 0 0 1-1.082237-3.608265c0.308171-0.691564 0.613915-1.383128 0.946351-2.038294 3.90673-8.728265 13.421194-12.370502 21.741801-7.565953z m-72.342445 22.07909l5.908625 3.411716 4.455128-4.806977-0.810464 7.061233 5.775166 3.414142-6.362389 0.744948-0.783773 6.983583c-1.026427-2.18146-2.067412-4.341081-3.105971-6.481289l-6.386654 0.842009 4.459981-4.770578c-1.038559-2.140209-2.094104-4.280417-3.149649-6.398787z m99.036815-29.897403l5.7509 3.736872 4.42601-4.743886c-0.288758 2.351318-0.577517 4.702635-0.997308 7.056379l5.775166 3.656796-6.299299 0.679432c-0.215962 2.336758-0.507147 4.67109-0.781346 7.000568-1.024-2.18146-2.038294-4.401744-3.047735-6.602616l-6.289592 0.616342 4.409024-4.722048a246.002654 246.002654 0 0 0-2.94582-6.677839z m-84.574635-1.572398c-0.276626 2.312493-0.533839 4.620133-0.791052 6.927773l5.896492 3.452966c-2.140209 0.262066-4.270711 0.543545-6.38908 0.839583l-0.793479 6.930199c-1.036133-2.142635-2.091678-4.261005-3.144796-6.3818l-6.415773 1.01672 4.48182-4.86764-3.203033-6.27746c2.057706 1.072531 3.989232 2.164474 5.959583 3.270977l4.399318-4.911318z m63.623886-21.887393l5.726635 3.816948 4.22946-4.675943-0.868702 7.053952 5.726635 3.816948-6.260474 0.558104-0.776492 7.036967L686.230445 148.018957l-6.260473 0.558105 4.394464-4.702635-2.955526-6.731223z m-55.118863 0.526559c1.970351 1.106502 3.945555 2.246976 5.903773 3.392303l4.362919-4.78999-0.788625 6.947185 5.835829 3.552455-6.342976 0.759507c-0.274199 2.329479-0.550825 4.641972-0.788626 6.96417-1.021573-2.159621-2.062559-4.319242-3.105971-6.478862l-6.381801 0.858995 4.450275-4.823962c-1.038559-2.142635-2.091678-4.261005-3.144797-6.381801z m27.376228-9.230559l5.775166 3.659223 4.188208-4.707489c-0.288758 2.351318-0.58237 4.683223-0.776493 7.019981l5.750901 3.736872-6.289593 0.621195c-0.274199 2.329479-0.562957 4.680796-0.776492 7.019981l-2.94582-6.658427c-2.098957 0.194123-4.197915 0.412512-6.301725 0.657593l4.423582-4.763299c-1.011867-2.203299-2.038294-4.382332-3.047734-6.58563z" fill="#FFFFFF" p-id="23190"></path><path d="M346.565763 350.336607a479.571716 479.571716 0 0 1 6.236209 31.433402l8.116777-32.049744-14.352986 0.616342z" fill="#000000" opacity=".2" p-id="23191"></path><path d="M361.741346 257.305479c2.839052 3.734445 2.499336 8.793782-0.727962 11.20091-3.227299 2.407128-8.119204 1.324891-10.955829-2.445953-2.839052-3.770844-2.484777-8.791355 0.744947-11.198483 3.229725-2.409555 8.026995-1.383128 10.938844 2.443526zM385.278787 230.950825c2.052853 7.895962 0.558104 15.117346-3.341346 16.126786-3.901877 1.007014-8.716133-4.554616-10.788398-12.448151-2.072265-7.898389-0.558104-15.119773 3.341346-16.129214 3.89945-1.007014 8.735545 4.554616 10.788398 12.448152z" fill="#263238" p-id="23192"></path><path d="M353.677953 258.256682c3.994085 10.138085 9.555716 29.026275 3.489365 37.332323a33.207204 33.207204 0 0 0 26.973421 5.488834c8.995185-1.868436 8.306047-8.269649 5.598029-11.404739-12.244322-0.655166-13.532815-9.332474-12.972285-17.956399l-23.08853-13.457592z" fill="#FF8B7B" p-id="23193"></path><path d="M363.14146 263.745517l13.719658 7.971184a33.748322 33.748322 0 0 0 0 5.993555c-4.593441 0.165005-11.647393-3.63981-13.066919-8.233251a16.165611 16.165611 0 0 1-0.655166-5.731488z" fill="#000000" opacity=".2" p-id="23194"></path><path d="M345.988246 246.40546c5.598028 13.365384 8.250237 21.465175 17.599697 26.133839 14.073934 6.922919 28.747223-5.24618 27.216076-20.028664-1.363716-13.290161-10.322502-32.908739-25.609706-33.600303a19.786009 19.786009 0 0 0-19.206067 27.495128z" fill="#FF8B7B" p-id="23195"></path><path d="M353.081024 256.3931c2.072265-2.970085 4.777858-15.736114 0.970616-20.868247 3.732019-1.868436 20.698389-6.813725 24.265403-12.9189 4.404171-7.464038 7.036967-19.970427-11.20091-21.239508-18.23545-1.269081-10.526332 12.766028-10.526332 12.766029s-34.922768 9.017024-25.891185 19.431735c-12.205498 6.236209 8.551128 28.351697 14.299602 26.133838 3.508777-1.40254 6.813725 5.915905 8.5851 2.572133a5.003526 5.003526 0 0 0-0.502294-5.87708z" fill="#263238" p-id="23196"></path><path d="M344.830787 261.896493a13.700246 13.700246 0 0 0 9.873592 3.622825c4.833668-0.223242 5.729062-4.908891 3.118104-8.679735-2.353744-3.377744-7.709118-7.335431-11.928872-5.265592-4.217327 2.074692-4.328948 7.262635-1.062824 10.324928z" fill="#FF8B7B" p-id="23197"></path><path d="M368.050351 242.952493c0.390673 1.121062 1.286066 1.868436 2.014028 1.567545 0.727962-0.298464 1.009441-1.361289 0.618768-2.482351-0.3931-1.118635-1.288493-1.868436-2.016455-1.548132-0.727962 0.31545-1.009441 1.361289-0.616341 2.462938zM380.631962 238.548322c0.371261 1.118635 1.286066 1.866009 2.014029 1.567545 0.727962-0.298464 0.990028-1.363716 0.616341-2.48235-0.373687-1.121062-1.305479-1.868436-2.033441-1.55056-0.727962 0.317877-0.990028 1.363716-0.596929 2.465365z" fill="#263238" p-id="23198"></path><path d="M376.822294 240.50654a42.483867 42.483867 0 0 0 8.643336 7.653308 6.813725 6.813725 0 0 1-4.964701 2.856038l-3.678635-10.506919z" fill="#FF5652" p-id="23199"></path><path d="M381.714199 258.661915c0.499867 0.111621 0.992455 0.254787 1.47291 0.429497a0.31545 0.31545 0 0 1 0.206256 0.427071 0.31545 0.31545 0 0 1-0.429498 0.206256 9.332474 9.332474 0 0 0-8.398256 0.934218 0.339716 0.339716 0 1 1-0.412511-0.541118 9.706161 9.706161 0 0 1 7.561099-1.455924zM362.74836 240.263886a0.691564 0.691564 0 0 0 0.524133-0.465895 5.600455 5.600455 0 0 1 3.414142-3.732019 0.672152 0.672152 0 0 0 0.485308-0.84201 0.691564 0.691564 0 0 0-0.839583-0.485308 6.886521 6.886521 0 0 0-4.384758 4.554616c-0.111621 0.363981 0.084929 0.752227 0.446483 0.878408a0.76436 0.76436 0 0 0 0.354275 0.092208zM384.533839 232.331526a0.672152 0.672152 0 0 0 0.334862-0.186844 0.672152 0.672152 0 0 0 0-0.970616 6.867109 6.867109 0 0 0-5.974142-2.03344 0.691564 0.691564 0 1 0 0.281479 1.344303c1.749536-0.25964 3.518483 0.363981 4.722047 1.659753 0.162578 0.169858 0.405232 0.242654 0.633327 0.186844z" fill="#263238" p-id="23200"></path><path d="M346.640986 317.820967l1.174445 6.345403c0.412512 2.183886 0.842009 4.350787 1.307905 6.51526 0.951204 4.331374 1.868436 8.662749 3.004057 12.93346a187.627374 187.627374 0 0 0 7.747943 24.750711c0.354275 1.009441 0.820171 1.868436 1.230256 2.87545l1.065252 2.409555c0.531412 1.038559 1.252095 1.970351 2.128075 2.74199a46.832227 46.832227 0 0 0 9.463508 6.364815 203.455697 203.455697 0 0 0 24.265402 10.397725l-1.997042 10.788399a112.965156 112.965156 0 0 1-28.895242-5.374787 56.407355 56.407355 0 0 1-14.632038-7.187412 27.26946 27.26946 0 0 1-7.243223-7.37183l-0.783772-1.232682-0.44891-0.839583-0.914806-1.66218c-0.596929-1.118635-1.249668-2.239697-1.771374-3.377744a163.827867 163.827867 0 0 1-10.49236-27.512114c-1.324891-4.666237-2.557573-9.3349-3.52819-14.037536-0.502294-2.353744-0.970616-4.702635-1.417099-7.073365-0.44891-2.37073-0.803185-4.685649-1.15746-7.318445l21.894673-3.13509z" fill="#FF8B7B" p-id="23201"></path><path d="M321.647621 312.368531c-7.633896 11.70563 3.397156 46.162502 3.397156 46.162502l36.939223-7.578085a197.855242 197.855242 0 0 0-9.220853-32.702484c-7.017555-18.36891-21.875261-19.970427-31.115526-5.879507z" fill="#4E8DFF" p-id="23202"></path><path d="M395.76872 392.801062l14.821308-0.635754-7.056379 17.284247s-12.72963-2.256682-12.283147-9.145631l4.518218-7.502862z" fill="#FF8B7B" p-id="23203"></path><path d="M420.555829 399.202275l-6.495848 14.018123-10.526332-3.770843 7.056379-17.284247z" fill="#FF8B7B" p-id="23204"></path></svg>