<svg t="1693188316632" class="icon" viewBox="0 0 1319 1024" version="1.1" xmlns="http://www.w3.org/2000/svg" p-id="13619" width="200" height="200"><path d="M850.440678 121.491525h156.20339v69.423729h-156.20339z" fill="#4686F2" p-id="13620"></path><path d="M104.135593 121.491525h156.20339v69.423729H104.135593zM781.016949 885.152542h433.898305v52.067797H781.016949z" fill="#D9D9D9" p-id="13621"></path><path d="M789.694915 112.813559h-485.966101v86.779661h485.966101v-86.779661z m-17.355932 17.355933v52.067796h-451.254237v-52.067796h451.254237zM1214.915254 260.338983v86.779661H104.135593v-86.779661h1110.779661z m-17.355932 17.355932H121.491525v52.067797h1076.067797v-52.067797z" fill="#D9D9D9" p-id="13622"></path><path d="M1214.915254 329.762712v86.779661H104.135593v-86.779661h1110.779661z m-17.355932 17.338576H121.491525v52.067797h1076.067797v-52.067797z" fill="#D9D9D9" p-id="13623"></path><path d="M1214.915254 399.186441v86.779661H104.135593v-86.779661h1110.779661z m-17.355932 17.355932H121.491525v52.067796h1076.067797v-52.067796z" fill="#D9D9D9" p-id="13624"></path><path d="M1214.915254 468.610169v86.779662H104.135593v-86.779662h1110.779661z m-17.355932 17.338577H121.491525v52.067796h1076.067797v-52.067796z" fill="#D9D9D9" p-id="13625"></path><path d="M1214.915254 538.033898v86.779661H104.135593v-86.779661h1110.779661z m-17.355932 17.338577H121.491525v52.067796h1076.067797v-52.067796z" fill="#D9D9D9" p-id="13626"></path><path d="M1214.915254 607.457627v86.779661H104.135593v-86.779661h1110.779661z m-17.355932 17.338576H121.491525v52.067797h1076.067797v-52.067797z" fill="#D9D9D9" p-id="13627"></path><path d="M1214.915254 676.881356v86.779661H104.135593v-86.779661h1110.779661z m-17.355932 17.355932H121.491525v52.067797h1076.067797v-52.067797z" fill="#D9D9D9" p-id="13628"></path><path d="M1214.915254 746.305085v86.779661H104.135593v-86.779661h1110.779661z m-17.355932 17.338576H121.491525v52.067797h1076.067797v-52.067797z" fill="#D9D9D9" p-id="13629"></path><path d="M555.389831 277.694915v538.033899h-17.355933V277.694915zM329.762712 277.694915v538.033899h-17.355932V277.694915zM781.016949 277.694915v538.033899h-17.355932V277.694915zM1006.644068 277.694915v538.033899h-17.355932V277.694915z" fill="#D9D9D9" p-id="13630"></path><path d="M1058.711864 121.491525h156.20339v69.423729h-156.20339z" fill="#D9D9D9" p-id="13631"></path><path d="M1249.627119 0a69.423729 69.423729 0 0 1 69.423728 69.423729v885.152542a69.423729 69.423729 0 0 1-69.423728 69.423729H69.423729a69.423729 69.423729 0 0 1-69.423729-69.423729V69.423729a69.423729 69.423729 0 0 1 69.423729-69.423729h1180.20339z m0 17.355932H69.423729a52.067797 52.067797 0 0 0-51.981017 49.013153L17.355932 69.423729v885.152542a52.067797 52.067797 0 0 0 49.013153 51.981017L69.423729 1006.644068h1180.20339a52.067797 52.067797 0 0 0 51.981017-49.013153L1301.694915 954.576271V69.423729a52.067797 52.067797 0 0 0-49.013152-51.981017L1249.627119 17.355932z" fill="#D9D9D9" p-id="13632"></path></svg>