<svg t="1693221460497" class="icon" viewBox="0 0 1024 1024" version="1.1" xmlns="http://www.w3.org/2000/svg" p-id="15990" width="200" height="200"><path d="M146.285714 1024a146.724571 146.724571 0 0 1-146.285714-146.285714V146.285714a146.724571 146.724571 0 0 1 146.285714-146.285714h731.428572a146.724571 146.724571 0 0 1 146.285714 146.285714v731.428572a146.724571 146.724571 0 0 1-146.285714 146.285714z m0-146.285714h731.428572V146.285714H146.285714v146.285715h731.428572v146.285714h-146.285715v146.285714h146.285715v146.285714h-146.285715v146.285715H585.142857v-146.285715H438.857143v146.285715H292.571429v-146.285715H146.285714z m292.571429-292.571429h146.285714V438.857143H438.857143zM292.571429 585.142857V438.857143H146.285714v146.285714z" fill="#804DF3" p-id="15991"></path></svg>