<svg t="1693188178891" class="icon" viewBox="0 0 1941 1024" version="1.1" xmlns="http://www.w3.org/2000/svg" p-id="11511" width="200" height="200"><path d="M1882.937313 7.641791c15.283582 0 27.510448 6.113433 38.208956 15.283582s15.283582 22.925373 15.283582 38.208955v904.78806c0 15.283582-6.113433 27.510448-15.283582 38.208955s-22.925373 15.283582-38.208956 15.283582H61.134328c-15.283582 0-27.510448-6.113433-38.208955-15.283582s-15.283582-22.925373-15.283582-38.208955V61.134328c0-15.283582 6.113433-27.510448 15.283582-38.208955S45.850746 7.641791 61.134328 7.641791h1821.802985z" fill="#E6F7FF" p-id="11512"></path><path d="M1730.101493 30.567164h152.83582c16.81194 0 30.567164 13.755224 30.567165 30.567164v152.835821l-183.402985-183.402985z" fill="#1890FF" p-id="11513"></path><path d="M165.062687 105.456716h330.125373c10.698507 0 18.340299 7.641791 18.340298 18.340299v91.701492c0 10.698507-7.641791 18.340299-18.340298 18.340299H165.062687c-10.698507 0-18.340299-7.641791-18.340299-18.340299v-91.701492c0-10.698507 7.641791-18.340299 18.340299-18.340299zM165.062687 632.740299h330.125373c10.698507 0 18.340299 7.641791 18.340298 18.340298v91.701493c0 10.698507-7.641791 18.340299-18.340298 18.340298H165.062687c-10.698507 0-18.340299-7.641791-18.340299-18.340298v-91.701493c0-9.170149 7.641791-18.340299 18.340299-18.340298z" fill-opacity=".2" p-id="11514"></path><path d="M177.289552 264.40597h1589.492538c16.81194 0 30.567164 13.755224 30.567164 30.567164v244.537314c0 16.81194-13.755224 30.567164-30.567164 30.567164h-1589.492538c-16.81194 0-30.567164-13.755224-30.567164-30.567164v-244.537314c0-18.340299 13.755224-30.567164 30.567164-30.567164zM177.289552 791.689552h1589.492538c16.81194 0 30.567164 13.755224 30.567164 30.567164v68.77612c0 16.81194-13.755224 30.567164-30.567164 30.567164h-1589.492538c-16.81194 0-30.567164-13.755224-30.567164-30.567164v-68.77612c0-16.81194 13.755224-30.567164 30.567164-30.567164z" fill-opacity=".06" p-id="11515"></path></svg>