<svg t="1693187998426" class="icon" viewBox="0 0 1024 1024" version="1.1" xmlns="http://www.w3.org/2000/svg" p-id="5736" width="200" height="200"><path d="M500.07 116.98c50.07 0 98.54 3.74 144.07 11.12 43.15 6.99 81.6 16.88 114.29 29.41 37.46 14.35 57.68 28.55 68.04 37.94 8.93 8.09 14.26 16.01 14.26 21.19s-5.33 13.1-14.26 21.19c-10.36 9.38-30.58 23.58-68.04 37.94-32.69 12.52-71.14 22.42-114.29 29.41-45.53 7.38-94 11.12-144.07 11.12s-98.54-3.74-144.07-11.12c-43.15-6.99-81.6-16.88-114.29-29.41-37.46-14.35-57.68-28.55-68.04-37.94-8.93-8.09-14.26-16.01-14.26-21.19s5.33-13.1 14.26-21.19c10.36-9.38 30.58-23.58 68.04-37.94 32.69-12.52 71.14-22.42 114.29-29.41 45.53-7.38 94-11.12 144.07-11.12m0-50c-215.76 0-390.66 67-390.66 149.65s174.91 149.65 390.66 149.65c215.76 0 390.66-67 390.66-149.65S715.83 66.98 500.07 66.98zM499.44 579c-100.19 0-194.76-15.09-266.28-42.49-36.32-13.91-65.2-30.44-85.83-49.13-16.8-15.21-36.82-40.19-36.82-72.79 0-13.81 11.19-25 25-25s25 11.19 25 25c0 25.39 33.84 53.51 90.53 75.23C317 515.09 405.22 529 499.44 529s182.44-13.91 248.39-39.18c56.69-21.72 90.53-49.84 90.53-75.23 0-13.81 11.19-25 25-25s25 11.19 25 25c0 32.61-20.02 57.58-36.82 72.79-20.63 18.68-49.51 35.21-85.83 49.13C694.2 563.91 599.63 579 499.44 579z" fill="#2C5CCB" p-id="5737"></path><path d="M499.44 754.29c-100.19 0-194.76-15.09-266.28-42.49-36.32-13.91-65.2-30.44-85.83-49.13-16.8-15.21-36.82-40.19-36.82-72.79 0-13.81 11.19-25 25-25s25 11.19 25 25c0 25.39 33.84 53.51 90.53 75.23 65.95 25.26 154.17 39.18 248.39 39.18s182.44-13.91 248.39-39.18c56.69-21.72 90.53-49.84 90.53-75.23 0-13.81 11.19-25 25-25s25 11.19 25 25c0 32.61-20.02 57.58-36.82 72.79-20.63 18.68-49.51 35.21-85.83 49.13-71.5 27.41-166.07 42.49-266.26 42.49z" fill="#2C5CCB" p-id="5738"></path><path d="M500.07 116.98c50.07 0 98.54 3.74 144.07 11.12 43.15 6.99 81.6 16.88 114.29 29.41 37.46 14.35 57.68 28.55 68.04 37.94 8.93 8.09 14.26 16.01 14.26 21.19v576.48c0 5.18-5.33 13.1-14.26 21.19-10.36 9.38-30.58 23.58-68.04 37.94-32.69 12.52-71.14 22.42-114.29 29.41-45.53 7.38-94 11.12-144.07 11.12s-98.54-3.74-144.07-11.12c-43.15-6.99-81.6-16.88-114.29-29.41-37.46-14.35-57.68-28.55-68.04-37.94-8.93-8.09-14.26-16.01-14.26-21.19V216.63c0-5.18 5.33-13.1 14.26-21.19 10.36-9.38 30.58-23.58 68.04-37.94 32.69-12.52 71.14-22.42 114.29-29.41 45.53-7.37 94-11.11 144.07-11.11m0-50c-215.76 0-390.66 67-390.66 149.65v576.48c0 82.65 174.91 149.65 390.66 149.65 215.76 0 390.66-67 390.66-149.65V216.63c0-82.65-174.9-149.65-390.66-149.65z" fill="#2C5CCB" p-id="5739"></path><path d="M745.95 424.9m-29.31 0a29.31 29.31 0 1 0 58.62 0 29.31 29.31 0 1 0-58.62 0Z" fill="#2C5CCB" p-id="5740"></path><path d="M745.95 614.55m-29.31 0a29.31 29.31 0 1 0 58.62 0 29.31 29.31 0 1 0-58.62 0Z" fill="#2C5CCB" p-id="5741"></path><path d="M745.95 804.2m-29.31 0a29.31 29.31 0 1 0 58.62 0 29.31 29.31 0 1 0-58.62 0Z" fill="#2C5CCB" p-id="5742"></path></svg>