<svg t="1693188066142" class="icon" viewBox="0 0 1024 1024" version="1.1" xmlns="http://www.w3.org/2000/svg" p-id="6829" width="200" height="200"><path d="M735.9 64.3H288.1c-123.6 0-223.9 100.2-223.9 223.9V736c0 123.6 100.2 223.9 223.9 223.9h447.8c102.4 0 188.7-68.8 215.3-162.7 5.5-19.4 8.5-39.9 8.5-61.2V512.1 344.7v-56.5c0-123.7-100.2-223.9-223.8-223.9z" fill="#FCDE70" p-id="6830"></path><path d="M959.7 518.2V350.8l-385.5-72.6 49.7 68.4 41.5 403.2 285.8 53.5c5.5-19.4 8.5-39.9 8.5-61.2V518.2z" fill="#423709" opacity=".2" p-id="6831"></path><path d="M747.3 748.3H276.7c-24.5 0-44.6-20.1-44.6-44.6V435.9c0-24.5 20.1-44.6 44.6-44.6h470.5c24.5 0 44.6 20.1 44.6 44.6v267.8c0 24.5-20 44.6-44.5 44.6z" fill="#DB4D29" p-id="6832"></path><path d="M232.2 494h559.7v22.3H232.2z" fill="#FEDA14" p-id="6833"></path></svg>