<svg t="1693220920129" class="icon" viewBox="0 0 1041 1024" version="1.1" xmlns="http://www.w3.org/2000/svg" p-id="14944" width="200" height="200"><path d="M825.969778 894.236444H121.969778c-41.927111 0-75.889778-33.28-75.889778-74.24V132.209778c0-40.96 33.962667-74.183111 75.889778-74.183111H826.026667c41.927111 0 75.889778 33.223111 75.889777 74.183111v687.786666c0 40.96-33.962667 74.183111-75.889777 74.183112" fill="#FFD1D7" p-id="14945"></path><path d="M559.047111 229.944889a24.746667 24.746667 0 0 0-34.360889 0l-35.271111 34.417778a23.324444 23.324444 0 0 0 0 33.564444L631.751111 436.849778h-553.528889a26.737778 26.737778 0 0 0-27.022222 26.453333v63.089778a26.737778 26.737778 0 0 0 27.079111 26.396444h550.115556l-146.716445 143.246223a23.324444 23.324444 0 0 0 0 33.564444l36.977778 36.067556c9.443556 9.272889 24.860444 9.272889 30.435556 3.811555l263.850666-259.470222a22.471111 22.471111 0 0 0 0-32.312889l-253.895111-247.751111z" fill="#FF0000" p-id="14946"></path><path d="M0 682.666667h56.888889v227.555555a56.888889 56.888889 0 0 0 56.888889 56.888889h796.444444a56.888889 56.888889 0 0 0 56.888889-56.888889V113.777778a56.888889 56.888889 0 0 0-56.888889-56.888889H113.777778a56.888889 56.888889 0 0 0-56.888889 56.888889v227.555555H0V113.777778a113.777778 113.777778 0 0 1 113.777778-113.777778h796.444444a113.777778 113.777778 0 0 1 113.777778 113.777778v796.444444a113.777778 113.777778 0 0 1-113.777778 113.777778H113.777778a113.777778 113.777778 0 0 1-113.777778-113.777778v-227.555555z m0 0h56.888889v227.555555a56.888889 56.888889 0 0 0 56.888889 56.888889h796.444444a56.888889 56.888889 0 0 0 56.888889-56.888889V113.777778a56.888889 56.888889 0 0 0-56.888889-56.888889H113.777778a56.888889 56.888889 0 0 0-56.888889 56.888889v227.555555H0V113.777778a113.777778 113.777778 0 0 1 113.777778-113.777778h796.444444a113.777778 113.777778 0 0 1 113.777778 113.777778v796.444444a113.777778 113.777778 0 0 1-113.777778 113.777778H113.777778a113.777778 113.777778 0 0 1-113.777778-113.777778v-227.555555z" fill="#000000" p-id="14947"></path></svg>