<?xml version="1.0" standalone="no"?><!DOCTYPE svg PUBLIC "-//W3C//DTD SVG 1.1//EN" "http://www.w3.org/Graphics/SVG/1.1/DTD/svg11.dtd"><svg t="1692871475668" class="icon" viewBox="0 0 1024 1024" version="1.1" xmlns="http://www.w3.org/2000/svg" p-id="11457" xmlns:xlink="http://www.w3.org/1999/xlink" width="200" height="200"><path d="M85.333333 255.786667c0-23.466667 19.029333-42.453333 42.453334-42.453334h341.76a42.453333 42.453333 0 1 1 0 84.906667h-341.76A42.453333 42.453333 0 0 1 85.333333 255.786667zM85.333333 512c0-23.466667 19.029333-42.453333 42.453334-42.453333h768.426666a42.453333 42.453333 0 1 1 0 84.906666H127.786667A42.453333 42.453333 0 0 1 85.333333 512z m42.453334 213.76a42.453333 42.453333 0 1 0 0 84.906667h512.426666a42.453333 42.453333 0 1 0 0-84.906667H127.786667z" fill="#181717" p-id="11458"></path></svg>