<svg t="1693188342088" class="icon" viewBox="0 0 1024 1024" version="1.1" xmlns="http://www.w3.org/2000/svg" p-id="14615" width="200" height="200"><path d="M25.088 27.136v870.4h973.824V27.136H25.088z m911.36 752.64h-783.36v-686.08h782.848v686.08z" fill="#115ECE" p-id="14616"></path><path d="M684.544 237.056h314.88v62.976h-314.88zM153.088 237.056h96.768v62.976H153.088zM747.52 594.432h251.392v62.976H747.52z" fill="#115ECE" p-id="14617"></path><path d="M748.544 33.28v854.528h-64V33.28h64zM0 972.8h1024v51.2H0z" fill="#115ECE" p-id="14618"></path><path d="M620.032 249.344l-74.24-74.24c-26.624-26.112-69.12-26.112-95.744 0L248.32 376.832c-2.56 2.56-5.12 6.144-6.656 9.728l-49.152 176.128c-5.12 11.264-2.56 24.064 6.144 32.768 8.704 8.704 21.504 11.264 32.768 6.656l176.128-49.152c3.584-1.536 6.656-3.584 9.728-6.144L619.52 345.088c26.624-26.624 26.624-69.12 0.512-95.744zM375.296 493.568l-84.48 10.24 10.24-84.48 177.664-177.664L552.96 315.904 375.296 493.568zM590.336 712.192H213.504c-17.408 0-31.232-13.824-31.232-31.232 0-17.408 13.824-31.232 31.232-31.232h376.832c17.408 0 31.232 13.824 31.232 31.232 0 17.408-14.336 31.232-31.232 31.232z" fill="#07AD76" p-id="14619"></path></svg>