<svg t="1706408148580" class="icon" viewBox="0 0 1024 1024" version="1.1" xmlns="http://www.w3.org/2000/svg" p-id="4293" width="200" height="200"><path d="M708.096 402.432a38.4 38.4 0 0 1-36.352-40.448 180.736 180.736 0 0 0-43.52-115.2 145.408 145.408 0 0 0-102.4-46.592 38.912 38.912 0 0 1-39.936-36.864 37.888 37.888 0 0 1 36.864-39.936 221.184 221.184 0 0 1 162.304 71.68 256 256 0 0 1 64 171.008 38.4 38.4 0 0 1-40.96 36.352z" fill="#2EA7E0" p-id="4294"></path><path d="M346.624 913.408H102.4c-97.792 0-136.192-20.48-62.464-150.016A1189.376 1189.376 0 0 0 153.6 358.4a358.4 358.4 0 0 1 716.8 0 1189.376 1189.376 0 0 0 115.2 404.992c73.728 129.536 35.328 150.016-62.464 150.016h-245.76a179.2 179.2 0 0 1-330.752 0z m165.376 33.792a102.4 102.4 0 0 0 75.776-33.792h-153.6a102.4 102.4 0 0 0 77.824 33.792zM230.4 358.4a1241.6 1241.6 0 0 1-125.44 442.88 385.536 385.536 0 0 0-17.92 35.328h850.432c-4.608-9.216-10.24-20.992-18.432-35.328A1241.6 1241.6 0 0 1 793.6 358.4a281.6 281.6 0 0 0-563.2 0z" fill="#4B8EE6" p-id="4295"></path></svg>